  <svg width="47" height="73" viewBox="0 0 47 73" fill="none" xmlns="http://www.w3.org/2000/svg" xlinkHref="http://www.w3.org/1999/xlink">
                        <path d="M6.94922 70H5.57812L2.33203 66.1562C2.21094 66.0117 2.13672 65.9141 2.10938 65.8633H2.08594V70H1.10156V61.5977H2.08594V65.5469H2.10938C2.16406 65.4609 2.23828 65.3652 2.33203 65.2598L5.47266 61.5977H6.69727L3.09375 65.6289L6.94922 70ZM10.4414 70.1406C9.55469 70.1406 8.8457 69.8613 8.31445 69.3027C7.78711 68.7402 7.52344 67.9961 7.52344 67.0703C7.52344 66.0625 7.79883 65.2754 8.34961 64.709C8.90039 64.1426 9.64453 63.8594 10.582 63.8594C11.4766 63.8594 12.1738 64.1348 12.6738 64.6855C13.1777 65.2363 13.4297 66 13.4297 66.9766C13.4297 67.9336 13.1582 68.7012 12.6152 69.2793C12.0762 69.8535 11.3516 70.1406 10.4414 70.1406ZM10.5117 64.668C9.89453 64.668 9.40625 64.8789 9.04688 65.3008C8.6875 65.7188 8.50781 66.2969 8.50781 67.0352C8.50781 67.7461 8.68945 68.3066 9.05273 68.7168C9.41602 69.127 9.90234 69.332 10.5117 69.332C11.1328 69.332 11.6094 69.1309 11.9414 68.7285C12.2773 68.3262 12.4453 67.7539 12.4453 67.0117C12.4453 66.2617 12.2773 65.6836 11.9414 65.2773C11.6094 64.8711 11.1328 64.668 10.5117 64.668ZM15.9492 69.1328H15.9258V72.7598H14.9648V64H15.9258V65.0547H15.9492C16.4219 64.2578 17.1133 63.8594 18.0234 63.8594C18.7969 63.8594 19.4004 64.1289 19.834 64.668C20.2676 65.2031 20.4844 65.9219 20.4844 66.8242C20.4844 67.8281 20.2402 68.6328 19.752 69.2383C19.2637 69.8398 18.5957 70.1406 17.748 70.1406C16.9707 70.1406 16.3711 69.8047 15.9492 69.1328ZM15.9258 66.7129V67.5508C15.9258 68.0469 16.0859 68.4688 16.4062 68.8164C16.7305 69.1602 17.1406 69.332 17.6367 69.332C18.2188 69.332 18.6738 69.1094 19.002 68.6641C19.334 68.2188 19.5 67.5996 19.5 66.8066C19.5 66.1387 19.3457 65.6152 19.0371 65.2363C18.7285 64.8574 18.3105 64.668 17.7832 64.668C17.2246 64.668 16.7754 64.8633 16.4355 65.2539C16.0957 65.6406 15.9258 66.127 15.9258 66.7129ZM21.5156 69.8301V68.8867C22.0391 69.1797 22.6504 69.3262 23.3496 69.3262C24.4082 69.3262 24.9375 68.9902 24.9375 68.3184C24.9375 67.6543 24.3574 67.3223 23.1973 67.3223H22.6055V66.5078H23.168C24.1875 66.5078 24.6973 66.1914 24.6973 65.5586C24.6973 65.2891 24.5801 65.0742 24.3457 64.9141C24.1113 64.7539 23.791 64.6738 23.3848 64.6738C22.8027 64.6738 22.2188 64.8203 21.6328 65.1133V64.2168C22.2969 63.9746 22.9062 63.8535 23.4609 63.8535C24.9219 63.8535 25.6523 64.3906 25.6523 65.4648C25.6523 65.8125 25.543 66.1133 25.3242 66.3672C25.1094 66.6172 24.8066 66.7832 24.416 66.8652V66.8945C24.8613 66.9297 25.2188 67.0801 25.4883 67.3457C25.7578 67.6113 25.8926 67.9473 25.8926 68.3535C25.8926 68.9004 25.6719 69.3359 25.2305 69.6602C24.7891 69.9844 24.1816 70.1465 23.4082 70.1465C22.584 70.1465 21.9531 70.041 21.5156 69.8301ZM32.4023 70H31.5352V65.2129C31.4492 65.3809 31.3184 65.6172 31.1426 65.9219L28.3711 70H27.375V64H28.2539V68.7285C28.3008 68.6152 28.4023 68.4219 28.5586 68.1484L31.4062 64H32.4023V70ZM39.3281 70H38.3672V67.2754H35.3086V70H34.3477V64H35.3086V66.4609H38.3672V64H39.3281V70ZM45.5684 70H44.6074V69.0625H44.584C44.166 69.7812 43.5508 70.1406 42.7383 70.1406C42.1406 70.1406 41.6719 69.9824 41.332 69.666C40.9961 69.3496 40.8281 68.9297 40.8281 68.4062C40.8281 67.2852 41.4883 66.6328 42.8086 66.4492L44.6074 66.1973C44.6074 65.1777 44.1953 64.668 43.3711 64.668C42.6484 64.668 41.9961 64.9141 41.4141 65.4062V64.4219C42.0039 64.0469 42.6836 63.8594 43.4531 63.8594C44.8633 63.8594 45.5684 64.6055 45.5684 66.0977V70ZM44.6074 66.9648L43.1602 67.1641C42.7148 67.2266 42.3789 67.3379 42.1523 67.498C41.9258 67.6543 41.8125 67.9336 41.8125 68.3359C41.8125 68.6289 41.916 68.8691 42.123 69.0566C42.334 69.2402 42.6133 69.332 42.9609 69.332C43.4375 69.332 43.8301 69.166 44.1387 68.834C44.4512 68.498 44.6074 68.0742 44.6074 67.5625V66.9648Z" fill="white" />
                        <rect x="1" y="1" width="45" height="45" rx="6" stroke="white" stroke-width="2" />
                    </svg>